<?xml version="1.0" encoding="UTF-8" standalone="no"?>
<!-- Created with Inkscape (http://www.inkscape.org/) -->
<svg
   xmlns:dc="http://purl.org/dc/elements/1.1/"
   xmlns:cc="http://creativecommons.org/ns#"
   xmlns:rdf="http://www.w3.org/1999/02/22-rdf-syntax-ns#"
   xmlns:svg="http://www.w3.org/2000/svg"
   xmlns="http://www.w3.org/2000/svg"
   xmlns:sodipodi="http://sodipodi.sourceforge.net/DTD/sodipodi-0.dtd"
   xmlns:inkscape="http://www.inkscape.org/namespaces/inkscape"
   width="740.8053"
   height="535.74463"
   id="svg2"
   sodipodi:version="0.32"
   inkscape:version="0.46"
   version="1.0"
   sodipodi:docname="Keratoconus.svg"
   inkscape:output_extension="org.inkscape.output.svg.inkscape">
  <sodipodi:namedview
     id="base"
     pagecolor="#ffffff"
     bordercolor="#666666"
     borderopacity="1.0"
     gridtolerance="10000"
     guidetolerance="10"
     objecttolerance="10"
     inkscape:pageopacity="0.0"
     inkscape:pageshadow="2"
     inkscape:zoom="0.99999999"
     inkscape:cx="304.05304"
     inkscape:cy="132.48603"
     inkscape:document-units="px"
     inkscape:current-layer="layer1"
     showgrid="false"
     inkscape:window-width="1440"
     inkscape:window-height="838"
     inkscape:window-x="-4"
     inkscape:window-y="-4" />
  <defs
     id="defs4">
    <inkscape:perspective
       id="perspective10"
       inkscape:persp3d-origin="372.04724 : 350.78739 : 1"
       inkscape:vp_z="744.09448 : 526.18109 : 1"
       inkscape:vp_y="0 : 1000 : 0"
       inkscape:vp_x="0 : 526.18109 : 1"
       sodipodi:type="inkscape:persp3d" />
    <inkscape:perspective
       sodipodi:type="inkscape:persp3d"
       inkscape:vp_x="0 : 526.18109 : 1"
       inkscape:vp_y="0 : 1000 : 0"
       inkscape:vp_z="744.09448 : 526.18109 : 1"
       inkscape:persp3d-origin="372.04724 : 350.78739 : 1"
       id="perspective2390" />
  </defs>
  <metadata
     id="metadata7">
    <rdf:RDF>
      <cc:Work
         rdf:about="">
        <dc:format>image/svg+xml</dc:format>
        <dc:type
           rdf:resource="http://purl.org/dc/dcmitype/StillImage" />
      </cc:Work>
    </rdf:RDF>
  </metadata>
  <g
     transform="translate(-37.365169,-167.54062)"
     id="layer1"
     inkscape:groupmode="layer"
     inkscape:label="Layer 1">
    <path
       id="path2446"
       d="M 675.56563,650.0172 C 654.89478,633.42053 635.37104,615.54147 615.73995,597.75996 C 597.9581,581.82234 583.39401,569.9882 576.41239,563.3995 C 563.38576,551.27587 552.95593,539.21977 542.86061,524.44918 C 528.9344,503.52859 525.21362,474.76081 535.34054,456.50032 C 557.29629,416.91052 586.97146,386.09759 617.16239,352.3016 C 641.06798,325.68352 639.18888,326.13166 650.33359,302.19918 L 656.75814,286.07418 L 679.00798,286.07418 L 698.63281,286.07418 C 700.37661,295.36183 699.12576,305.93566 705.28288,313.70154 C 707.3233,316.36882 707.86274,317.81468 707.14835,318.70154 C 705.36292,320.918 704.72353,326.22778 705.96314,328.54402 C 708.3132,332.93513 707.52226,346.44918 704.9152,346.44918 C 704.45206,346.44918 703.33771,348.66332 702.43886,351.36948 C 701.54002,354.07565 699.78563,356.95744 698.54023,357.77346 C 695.78467,359.57897 687.01112,372.30904 686.80445,375.13083 C 686.95134,377.95262 690.22947,383.65608 691.80653,388.18673 C 694.11674,394.82361 695.75914,397.59646 700.2588,402.45663 C 707.85441,410.6608 710.77013,415.0958 718.42731,430.09218 C 727.44005,447.7434 730.44453,461.50964 729.63596,481.44918 C 728.53502,504.10648 720.0408,525.8968 708.95804,545.44918 C 706.57191,547.04794 706.34993,551.38006 705.91239,565.42328 C 705.73055,571.25957 704.40158,573.96029 704.52712,578.14027 C 708.06953,583.00449 710.82063,586.16598 714.43292,593.91972 C 716.71707,598.82262 716.6273,600.11336 715.83735,601.58939 C 714.9407,603.2648 714.66432,608.65411 715.06177,616.7126 C 715.13674,618.23249 714.40709,620.35004 713.44035,621.41829 C 710.85578,624.2742 709.09903,630.68445 711.88658,636.09543 C 714.07666,640.34664 714.61967,640.53243 712.83671,642.24277 C 711.035,643.97109 682.43892,652.85819 678.52847,652.85819 C 677.43597,652.85819 676.00546,650.7047 675.56563,650.0172 z"
       style="fill:#000000"
       sodipodi:nodetypes="ccccsccccccssssscsssccscsssssssc" />
    <path
       sodipodi:nodetypes="cssssssssssssssssssssssssssssssssssssssssscccsssssssssccssssssc"
       id="path2444"
       d="M 694.91239,644.92635 C 702.33739,642.84494 708.76022,640.84076 709.18534,640.47262 C 709.61046,640.10448 709.27296,638.16306 708.43534,636.15835 C 706.34112,631.14617 706.52746,626.21473 709.03099,620.39513 C 710.26536,617.52574 710.93647,614.3555 710.63897,612.79921 C 710.35813,611.3301 710.59063,608.80202 711.15563,607.18126 C 711.9506,604.90082 711.86964,604.03601 710.79765,603.35711 C 708.58938,601.95858 702.90703,602.31168 701.26953,603.94918 C 697.55595,607.66276 689.17168,604.29977 682.56307,596.44589 C 677.19421,590.06535 667.23826,566.83464 659.42179,542.44918 C 656.8655,534.47418 654.35513,526.64453 653.84319,525.04996 C 653.33125,523.45538 652.91239,521.07876 652.91239,519.76857 C 652.91239,518.45838 652.22624,517.12311 651.38762,516.8013 C 649.60213,516.11614 641.91802,520.9045 641.90024,522.71337 C 641.89356,523.39306 644.55337,529.79918 647.81092,536.94918 C 663.69974,571.82347 668.72523,591.98111 663.5138,599.93475 C 662.205,601.93223 661.03766,602.44918 657.83591,602.44918 C 652.87586,602.44918 615.41176,583.24446 608.89277,574.78674 C 606.34921,571.48674 572.9527,541.29391 569.41949,534.83243 C 568.36687,532.90743 552.26312,510.48748 549.75519,503.27151 C 541.55481,479.67686 556.21026,446.21292 573.53889,424.96696 C 592.51123,401.70573 650.08238,344.79387 656.83685,348.40875 C 659.55722,349.86465 661.29466,357.50588 660.54829,364.73168 C 659.79939,371.98211 654.90713,388.75513 651.44295,395.94918 C 650.11874,398.69918 647.14842,406.12418 644.84224,412.44918 C 642.53607,418.77418 640.03342,424.83681 639.28079,425.92169 C 637.02477,429.17366 637.67418,432.41097 641.31239,436.04918 C 645.25382,439.99061 647.68365,440.38875 648.33079,437.19918 C 648.58187,435.96168 650.39069,426.8148 652.35038,416.87277 C 656.07962,397.95336 658.28235,390.54236 664.36528,376.44918 C 669.97889,363.44335 672.26117,360.07257 677.24299,357.42973 C 681.5125,355.16476 681.7906,355.13936 684.30223,356.78505 C 686.66443,358.33282 687.18217,358.353 689.66463,356.99407 C 694.35363,354.42727 696.91239,351.72383 696.91239,349.3365 C 696.91239,348.07584 698.33975,345.57173 700.08431,343.77181 C 702.85588,340.91227 703.11741,340.19458 702.15645,338.0855 C 701.55158,336.75795 701.18223,334.83419 701.33567,333.81048 C 701.48911,332.78676 701.04916,331.04918 700.358,329.94918 C 699.33242,328.31695 699.38916,327.06765 700.66658,323.1552 C 702.18952,318.49077 702.173,318.32002 700.05537,316.83678 C 698.85833,315.99833 698.1502,314.87341 698.48175,314.33695 C 698.8133,313.80049 698.49255,312.64823 697.76897,311.77636 C 696.93362,310.76984 696.31322,306.40523 696.06946,299.82017 L 695.68555,289.44918 L 678.29897,289.44918 C 668.73635,289.44918 660.91239,289.58897 660.91239,289.75982 C 660.91239,289.93067 657.40138,297.69317 653.11015,307.00982 C 644.9628,324.69845 640.17088,332.03103 627.00934,346.94918 C 623.12743,351.34918 613.47117,362.59918 605.55097,371.94918 C 597.63077,381.29918 589.9411,390.29918 588.46283,391.94918 C 586.98455,393.59918 584.11846,396.97026 582.09372,399.44047 C 580.06899,401.91068 576.99201,405.51068 575.25598,407.44047 C 573.51996,409.37026 569.52829,414.32418 566.38561,418.44918 C 563.24293,422.57418 559.44298,427.29918 557.94126,428.94918 C 554.56147,432.66272 541.71111,453.52279 539.4678,458.93729 C 529.35576,478.72179 535.17222,499.03956 544.68532,517.94918 C 551.87044,530.50861 555.42131,534.90052 569.37011,548.48069 C 583.05768,561.80652 613.0507,589.52952 622.73211,597.80397 C 625.85626,600.4741 631.78739,605.88855 635.91239,609.83609 C 640.03739,613.78362 645.88739,619.00577 648.91239,621.44087 C 654.75047,626.14047 673.16889,642.82772 677.08098,646.96186 C 678.36326,648.31692 679.86239,649.26475 680.41239,649.06817 C 680.96239,648.87158 687.48739,647.00776 694.91239,644.92635 z"
       style="fill:#ffcc00" />
    <path
       id="path2442"
       d="M 644.41105,609.31386 C 639.27775,604.80676 639.7629,599.44918 645.30434,599.44918 C 647.78386,599.44918 653.02529,605.68226 652.71262,608.25908 C 652.20357,612.45442 648.52087,612.92233 644.41105,609.31386 z"
       style="fill:#000000" />
    <path
       id="path2440"
       d="M 649.91239,607.67169 C 649.91239,606.07678 646.74726,602.44918 645.35569,602.44918 C 643.43073,602.44918 643.52806,604.36702 645.56738,606.62044 C 647.23595,608.4642 649.91239,609.11174 649.91239,607.67169 z"
       style="fill:#000000" />
    <path
       id="path2438"
       d="M 638.16239,347.7869 C 637.47489,347.50949 636.91239,346.28102 636.91239,345.05698 C 636.91239,342.48787 638.38548,340.42555 641.8849,338.09548 C 645.41814,335.74289 647.80949,336.04834 648.92994,338.99535 C 650.87706,344.11666 643.66333,350.00657 638.16239,347.7869 z"
       style="fill:#000000" />
    <path
       id="path2436"
       d="M 645.26984,343.24714 C 645.85933,342.31102 645.99848,341.20194 645.57906,340.78251 C 644.5122,339.71565 641.48199,341.80953 641.07158,343.89718 C 640.63285,346.12886 643.76006,345.64466 645.26984,343.24714 z"
       style="fill:#000000" />
    <path
       sodipodi:nodetypes="cscscssccssssssssssccssscssssssssc"
       id="path2434"
       d="M 695.71607,598.84563 C 697.09958,592.08593 699.36004,581.12359 698.73957,580.11429 C 696.67193,576.75088 684.30828,561.89438 683.43264,561.56254 C 662.87455,540.5462 652.46009,504.52231 650.27389,473.94918 C 648.34062,446.91323 655.72797,420.05444 668.85708,396.44918 C 669.38033,395.62418 670.39434,393.77405 671.11042,392.33778 C 671.8265,390.90151 674.14787,386.42997 676.26901,382.40102 C 678.09393,378.93472 680.38974,376.36294 680.80226,374.56127 C 679.87501,371.62115 679.16897,368.35419 677.52022,365.62844 C 674.81593,362.92415 672.9134,365.38944 666.08267,380.44918 C 664.46114,384.02418 662.4605,388.97418 661.6368,391.44918 C 659.17499,398.84631 654.22076,421.99314 651.68417,437.94918 C 650.43357,445.81596 650.36154,445.95415 647.35914,446.24786 C 645.3724,446.44222 643.32253,445.77304 641.49069,444.33211 C 638.30586,441.82692 631.91239,432.30831 631.91239,430.07192 C 631.91239,429.26159 633.87949,424.62747 636.28373,419.77389 C 638.68797,414.9203 641.43086,407.79918 642.37905,403.94918 C 643.32723,400.09918 644.66281,396.27418 645.34699,395.44918 C 648.73607,391.36258 654.11004,374.71912 655.41634,364.2639 C 656.11108,358.70333 656.31519,352.50984 654.15083,352.50984 C 634.34808,367.854 615.2867,385.32377 600.44004,402.09905 C 592.50159,412.02089 576.74962,426.99273 568.70356,441.23323 C 563.99618,449.56467 543.58024,483.24901 554.52234,504.54116 C 568.06391,530.8916 586.73368,546.03574 617.11195,577.7102 C 622.29951,583.1191 629.73261,582.56857 636.97124,587.50462 C 652.4336,598.64763 658.73475,602.09303 660.3599,592.75985 C 661.76613,584.68391 654.17606,560.22562 643.60973,538.50898 C 639.44043,529.93994 637.53442,524.8223 637.48465,522.06312 C 637.41678,518.30082 637.74654,517.82963 642.91239,514.30741 C 648.88774,510.23326 651.04284,509.6965 652.82134,511.83947 C 653.45596,512.60414 655.7197,518.34164 657.85189,524.58947 C 673.64404,570.86445 681.07362,587.64828 689.77214,596.69918 C 692.28293,599.31168 694.68305,601.44918 695.10575,601.44918 C 695.52844,601.44918 695.46279,600.08313 695.71607,598.84563 z"
       style="fill:#d5fff6;fill-opacity:1" />
    <path
       id="path2432"
       d="M 708.56514,599.24918 C 710.46113,599.24918 711.87739,598.94517 711.71239,598.57359 C 710.5448,595.94423 703.48234,585.44918 702.88054,585.44918 C 702.00874,585.44918 699.93117,598.56843 700.61747,599.73986 C 700.87225,600.17473 701.98907,600.24223 703.0993,599.88986 C 704.20953,599.53748 706.66916,599.24918 708.56514,599.24918 z"
       style="fill:#000000" />
    <path
       id="path2430"
       d="M 702.04207,568.32833 C 701.77039,556.01735 701.30639,555.43039 695.69719,560.30208 C 693.89055,561.87118 691.84684,563.33469 691.15562,563.55434 C 690.34163,563.81299 691.75092,566.65149 695.15562,571.61091 C 698.25736,576.12902 700.788,578.90913 701.32862,578.39243 C 701.83254,577.91079 702.1536,573.38195 702.04207,568.32833 z"
       style="fill:#000000" />
    <path
       id="path2428"
       d="M 697.65617,551.87339 C 702.02188,547.13715 711.72759,530.07302 715.0921,521.21835 C 720.32327,507.45103 724.01359,490.97036 724.55694,478.94918 C 725.04019,468.2575 724.80966,465.75 722.4425,455.95016 C 719.31669,443.00962 718.06821,440.0132 708.8917,423.42761 C 701.38958,409.86829 694.03078,400.74857 686.98748,396.28185 C 679.24719,391.3731 675.73631,392.86309 670.51379,403.27318 C 665.97843,412.31355 660.24486,429.40992 658.88458,437.94918 C 658.27129,441.79918 657.06715,447.98114 656.20873,451.68687 C 654.27676,460.02702 654.89469,485.39639 657.35299,498.66422 C 660.12028,513.59978 673.03617,544.28944 679.7329,551.84153 C 685.82321,558.70973 691.34561,558.71955 697.65617,551.87339 z"
       style="fill:#00d4aa" />
    <path
       id="path2426"
       d="M 686.91239,390.41706 C 686.91239,388.4358 684.00663,382.44918 683.04498,382.44918 C 682.14773,382.44918 677.91239,388.47399 677.91239,389.75033 C 677.91239,390.06113 679.26873,390.27685 680.92648,390.22972 C 682.58422,390.18258 684.23422,390.43768 684.59314,390.7966 C 685.5881,391.79156 686.91239,391.57484 686.91239,390.41706 z"
       style="fill:#000000" />
    <path
       id="path2424"
       d="M 688.39469,366.8835 C 689.89051,364.92238 690.85326,363.05671 690.53412,362.73758 C 689.82303,362.02648 682.54578,361.79214 682.07018,362.46502 C 681.25547,363.61766 683.25322,370.44918 684.40499,370.44918 C 685.1035,370.44918 686.89887,368.84462 688.39469,366.8835 z"
       style="fill:#000000" />
    <path
       sodipodi:nodetypes="cscsscscssszzzzscssszzzsssc"
       id="path2422"
       d="M 204.96193,547.93613 C 188.13546,515.89228 184.36571,496.69353 184.52192,465.69664 C 184.69699,430.95545 197.85384,396.21281 219.60533,367.80172 C 227.82487,357.33422 237.0409,346.70848 246.05064,336.92887 C 257.51789,324.48176 265.93293,314.29293 272.89843,290.82803 C 275.61577,281.67403 274.64049,281.96066 298.14349,282.28251 C 311.32665,282.55777 318.52368,280.93342 318.76192,283.92887 C 319.95108,298.88064 320.35663,304.63327 324.72206,310.40158 C 326.49394,312.79817 326.57779,313.56835 325.52294,317.75757 C 324.6415,321.25806 324.62895,323.12841 325.47309,325.18278 C 326.0937,326.69313 326.71006,330.47828 326.84279,333.59422 C 327.03173,338.02964 326.3863,340.20506 324.99202,342.09422 C 323.59774,343.98338 322.33871,346.63231 321.65278,348.71429 C 320.96685,350.79627 320.1784,352.6486 318.11196,354.00258 C 316.04552,355.35657 307.52346,369.10597 307.52346,371.92576 C 307.52346,374.74555 308.33412,380.99551 311.2634,384.71378 C 356.06422,441.5814 357.36685,482.41663 327.58875,543.15011 C 325.77447,545.4566 325.58412,547.20059 325.58412,561.51668 C 325.58412,568.20054 325.00954,572.58563 325.38221,575.75881 C 325.94185,580.52394 328.47819,580.96301 330.91176,586.35321 C 334.08218,593.37547 335.38898,597.11811 334.54997,601.66259 C 333.71096,606.20708 333.84474,607.85861 334.46615,610.02213 C 335.08756,612.18565 335.33884,613.1472 332.92295,618.02213 C 330.50706,622.89706 330.3254,629.85242 333.7385,634.64568 C 335.35431,636.91488 335.64947,638.10509 334.89533,639.31052 C 333.81806,641.03244 300.51611,650.72995 296.83412,648.20095 C 259.51129,622.56546 228.28508,587.84988 204.96193,547.93613 z"
       style="fill:#000000" />
    <path
       id="path2420"
       d="M 329.47662,636.7782 C 329.6925,636.61265 329.40696,635.90383 328.84209,635.20304 C 325.98373,631.65685 325.76148,622.83881 328.40685,617.93375 C 329.29816,616.28106 330.11982,612.45387 330.23276,609.42887 C 330.3457,606.40387 330.58346,603.02887 330.76111,601.92887 C 331.03566,600.22894 330.44664,599.88274 326.83518,599.62142 C 324.16604,599.42829 321.7595,599.89305 320.36267,600.87142 C 317.07522,603.17405 313.95835,602.78243 309.12941,599.46003 C 301.29455,594.0695 297.56773,587.89077 287.09497,562.92887 C 283.70659,554.85266 273.25635,522.6892 272.06787,516.67887 C 271.55482,514.08432 270.93704,513.42887 269.00466,513.42887 C 266.14566,514.15125 262.53399,516.48841 261.58412,519.37418 C 261.58412,520.46768 263.79346,525.98983 266.49378,531.64562 C 272.49752,544.22044 281.38208,567.79247 283.18462,575.92887 C 285.26274,585.30922 284.99407,593.63799 282.51154,596.79401 C 278.19105,602.28663 271.36951,599.47 262.35113,588.46972 C 260.00427,585.60712 254.86225,579.50786 250.92441,574.9158 C 204.14425,518.48504 192.50662,465.44037 223.21273,399.11946 C 230.94245,382.42435 260.10923,348.22378 268.4638,344.71363 C 273.71356,342.50795 277.06907,344.36213 279.14648,350.61661 C 281.20962,356.82817 280.09438,365.90391 275.58734,379.58047 C 273.93557,384.59276 272.58412,389.16119 272.58412,389.73255 C 272.58412,390.30391 271.87899,391.55055 271.01716,392.50286 C 270.15533,393.45518 267.65359,399.56561 265.45775,406.08161 C 263.26191,412.5976 260.59204,419.41709 259.52471,421.23603 C 256.68543,426.07474 257.06046,429.10521 260.98412,433.02887 C 267.04952,439.09427 267.41992,438.62015 270.04668,421.42887 C 274.09477,394.93554 285.71176,362.70648 293.60821,356.06205 C 297.85699,352.48694 301.02381,351.83172 304.15101,353.88074 C 306.64157,355.51262 306.82287,355.46192 311.64373,351.78549 C 315.23924,349.04351 316.58412,347.33819 316.58412,345.52099 C 316.58412,344.10254 317.87661,341.69057 319.57659,339.93664 C 322.33648,337.08915 322.48458,336.58029 321.48222,333.38904 C 318.76358,324.73362 318.71931,324.29716 320.14901,320.24494 C 321.91812,315.23076 321.98985,315.88477 319.40689,313.47838 C 318.20942,312.36277 317.99795,311.26424 317.89822,310.78144 C 317.05387,306.69377 315.89358,301.69458 315.58412,297.02628 L 315.08412,286.92887 L 297.62489,286.92887 L 280.16565,286.92887 L 272.54968,303.49574 C 250.39487,351.68867 203.8724,376.14471 192.59861,431.15536 C 186.89326,458.99472 186.90682,489.32807 194.70789,515.42887 C 206.8964,548.16187 234.34051,594.89487 298.01318,645.12787 L 313.54865,641.10353 C 322.09316,638.89015 329.26075,636.94375 329.47662,636.7782 z"
       style="fill:#ffcc00"
       sodipodi:nodetypes="csssssssssccsssscsssssssssssssssssssccccsscccc" />
    <path
       id="path2418"
       d="M 262.62712,604.67887 C 258.83914,600.10048 258.94145,597.05986 262.89876,596.60621 C 266.52224,596.19083 269.94036,598.46049 271.55241,602.35231 C 272.57023,604.80954 272.57647,605.73316 271.58337,606.92977 C 269.40523,609.55427 265.94038,608.68348 262.62712,604.67887 z"
       style="fill:#000000" />
    <path
       id="path2414"
       d="M 257.33675,344.03875 C 253.61263,341.21158 259.6158,333.42887 265.52064,333.42887 C 268.76045,333.42887 269.7907,337.32976 267.36937,340.42887 C 265.37147,342.98604 261.87252,345.35514 260.08412,345.36163 C 259.53412,345.36363 258.2978,344.76833 257.33675,344.03875 z"
       style="fill:#000000" />
    <path
       sodipodi:nodetypes="ccczsscsccscccscssccsszssc"
       id="path2410"
       d="M 315.15843,598.17887 C 315.1993,597.76637 315.92068,594.80387 316.15038,593.42887 L 317.63183,577.97624 C 316.34284,569.11391 306.91197,560.67457 301.52682,556.91068 C 296.14166,553.14679 283.97763,533.25304 280.20764,523.56291 C 273.08355,505.25162 269.99709,487.90736 269.97878,470.78206 C 269.95361,447.23204 275.73052,424.09609 284.78839,399.42887 C 297.41923,376.50808 301.27946,374.33045 300.62353,370.83402 C 299.66386,365.71858 296.37335,360.93316 294.00495,362.21636 C 283.76219,372.55428 279.64863,392.35694 276.64806,405.92887 C 275.97232,409.22887 274.99032,413.87984 274.46585,416.26436 C 273.94138,418.64888 272.64779,425.56703 271.5912,431.63802 C 270.00133,441.8442 266.08321,441.23908 261.14367,436.69416 C 253.11458,428.65744 253.17176,426.68728 257.66467,417.33784 C 263.98996,406.84217 263.54886,400.47763 269.9202,389.30581 C 272.41749,384.92693 274.96294,373.9144 275.87144,368.92887 C 278.63891,355.66964 274.36843,346.30036 269.89269,349.03314 C 268.38648,349.95279 250.02424,366.85936 245.70347,372.42887 C 227.99062,395.26086 219.48633,417.12661 213.35871,442.42887 C 205.7535,476.75452 213.71598,513.96866 235.29854,547.37471 C 242.06653,557.67651 269.61548,594.77896 274.17205,595.68321 C 295.18744,599.85371 264.13878,533.81187 260.32314,521.90553 C 258.89773,517.45769 257.52507,518.34726 264.60306,513.59317 C 271.68105,508.83907 273.54664,509.80891 277.17363,524.91392 C 283.65797,551.91865 291.89315,567.36624 301.51692,588.34308 C 304.12086,594.01887 314.88441,600.94449 315.15843,598.17887 z"
       style="fill:#d5fff6" />
    <path
       id="path2404"
       d="M 317.25471,547.79466 C 324.64968,539.90739 334.4599,519.83205 339.17928,502.92887 C 344.02353,485.57846 345.44665,469.24609 343.05838,458.41077 C 338.68154,437.00957 328.83763,415.33905 313.63846,399.34366 C 305.05057,390.72068 301.55327,388.98155 296.81074,390.97563 C 293.28202,392.45934 288.13358,401.59556 283.87612,413.92887 C 278.69448,431.93441 273.43475,450.63617 274.23389,469.55069 C 276.01162,498.92536 282.45575,532.29717 304.96233,552.98369 C 309.38569,554.8972 311.38794,554.05199 317.25471,547.79466 z"
       style="fill:#00d4aa"
       sodipodi:nodetypes="csccscccc" />
    
    
    
    
    <text
       id="text2422"
       y="220.44247"
       x="292.81775"
       style="font-size:39.30995941px;font-style:normal;font-variant:normal;font-weight:normal;font-stretch:normal;text-align:center;line-height:89.99999762%;writing-mode:lr-tb;text-anchor:middle;fill:#000000;fill-opacity:1;stroke:none;stroke-width:1px;stroke-linecap:butt;stroke-linejoin:miter;stroke-opacity:1;font-family:Corbel;-inkscape-font-specification:Corbel"
       xml:space="preserve"
       sodipodi:linespacing="89.999998%"><tspan
         y="220.44247"
         x="292.81775"
         id="tspan2424"
         sodipodi:role="line">CÓRNEA</tspan><tspan
         id="tspan2426"
         y="255.82144"
         x="292.81775"
         sodipodi:role="line">NORMAL</tspan></text>
    <text
       sodipodi:linespacing="89.999998%"
       xml:space="preserve"
       style="font-size:39.30995941px;font-style:normal;font-variant:normal;font-weight:normal;font-stretch:normal;text-align:center;line-height:89.99999762%;writing-mode:lr-tb;text-anchor:middle;fill:#000000;fill-opacity:1;stroke:none;stroke-width:1px;stroke-linecap:butt;stroke-linejoin:miter;stroke-opacity:1;font-family:Corbel;-inkscape-font-specification:Corbel"
       x="669.30298"
       y="224.48059"
       id="text2518"><tspan
         sodipodi:role="line"
         id="tspan2520"
         x="669.30298"
         y="224.48059">QUERATO-</tspan><tspan
         sodipodi:role="line"
         x="669.30298"
         y="259.85956"
         id="tspan2522">CONO</tspan></text>
    
    
    
    
    <path
       style="fill:#ffffff;fill-rule:evenodd;stroke:#000000;stroke-width:1px;stroke-linecap:butt;stroke-linejoin:miter;stroke-opacity:1"
       d="M 641.00369,192.83041 C 644.18572,188.68792 647.12059,193.24694 649.86623,192.98307 C 652.55131,192.72503 653.59403,191.14545 655.62501,190.61075 C 652.04168,197.43917 649.95834,198.70081 646.37501,204.68213 C 644.7849,199.06974 643.43288,197.97331 641.00369,192.83041 z"
       id="path2417"
       transform="translate(37.365169,167.54062)"
       sodipodi:nodetypes="csccc" />
    <path
       sodipodi:nodetypes="cccc"
       id="path2419"
       d="M 676.24018,391.03525 C 680.07351,389.9038 685.53185,389.4068 689.36518,393.53525 C 688.05363,387.98766 686.07166,382.52846 683.17324,376.98087 C 681.14469,381.69513 679.13436,386.32099 676.24018,391.03525 z"
       style="fill:#ffffff;fill-rule:evenodd;stroke:#000000;stroke-width:1px;stroke-linecap:butt;stroke-linejoin:miter;stroke-opacity:1" />
    <path
       sodipodi:nodetypes="cccc"
       id="path2421"
       d="M 699.06968,600.94448 C 702.21666,598.8233 708.10338,598.14702 712.21115,599.22849 C 709.17154,592.00184 706.44907,589.25699 702.16695,583.40289 C 701.01993,588.65289 700.7342,595.69448 699.06968,600.94448 z"
       style="fill:#ffffff;fill-rule:evenodd;stroke:#000000;stroke-width:1px;stroke-linecap:butt;stroke-linejoin:miter;stroke-opacity:1" />
    <path
       style="fill:#ffffff;fill-rule:evenodd;stroke:#000000;stroke-width:1.15202773px;stroke-linecap:butt;stroke-linejoin:miter;stroke-opacity:1"
       d="M 687.79413,559.7889 C 691.84812,560.2676 700.10323,557.42793 702.31566,551.08838 C 702.38283,559.8452 702.19043,566.96685 700.97486,575.72368 C 694.96144,567.99518 692.21587,564.56143 687.79413,559.7889 z"
       id="path2423"
       sodipodi:nodetypes="cccc" />
    <path
       style="fill:#ffffff;fill-rule:evenodd;stroke:#000000;stroke-width:1px;stroke-linecap:butt;stroke-linejoin:miter;stroke-opacity:1"
       d="M 318.49018,598.28525 C 321.63716,596.16407 327.25741,596.45378 331.36518,597.53525 C 333.08788,592.53741 326.77817,585.86698 321.36518,577.16025 C 320.48779,583.50938 320.8581,593.73865 318.49018,598.28525 z"
       id="path2425"
       sodipodi:nodetypes="cccc" />
    <path
       sodipodi:nodetypes="cccc"
       id="path2427"
       d="M 307.87539,557.31957 C 312.22139,557.86999 320.11657,553.36821 322.48836,546.07888 C 323.38803,554.70787 322.90574,565.46187 321.24347,574.09086 C 317.70581,567.50458 313.99469,562.29233 307.87539,557.31957 z"
       style="fill:#ffffff;fill-rule:evenodd;stroke:#000000;stroke-width:1.27903008px;stroke-linecap:butt;stroke-linejoin:miter;stroke-opacity:1" />
    <path
       sodipodi:type="arc"
       style="fill:#ffffff;fill-rule:evenodd;stroke:none;stroke-width:1px;stroke-linecap:butt;stroke-linejoin:miter;stroke-opacity:1"
       id="path2433"
       sodipodi:cx="225"
       sodipodi:cy="172.74463"
       sodipodi:rx="3.75"
       sodipodi:ry="2"
       d="M 228.75,172.74463 A 3.75,2 0 1 1 221.25,172.74463 A 3.75,2 0 1 1 228.75,172.74463 z"
       transform="matrix(1.0130385,-0.8080808,0.8080808,1.0130385,-105.0351,345.98151)" />
    <path
       transform="matrix(1.0130385,-0.8080808,0.8080808,1.0130385,275.9649,348.98151)"
       d="M 228.75,172.74463 A 3.75,2 0 1 1 221.25,172.74463 A 3.75,2 0 1 1 228.75,172.74463 z"
       sodipodi:ry="2"
       sodipodi:rx="3.75"
       sodipodi:cy="172.74463"
       sodipodi:cx="225"
       id="path2435"
       style="fill:#ffffff;fill-rule:evenodd;stroke:none;stroke-width:1px;stroke-linecap:butt;stroke-linejoin:miter;stroke-opacity:1"
       sodipodi:type="arc" />
    <path
       sodipodi:type="arc"
       style="fill:#ffffff;fill-rule:evenodd;stroke:none;stroke-width:1px;stroke-linecap:butt;stroke-linejoin:miter;stroke-opacity:1"
       id="path2437"
       sodipodi:cx="225"
       sodipodi:cy="172.74463"
       sodipodi:rx="3.75"
       sodipodi:ry="2"
       d="M 228.75,172.74463 A 3.75,2 0 1 1 221.25,172.74463 A 3.75,2 0 1 1 228.75,172.74463 z"
       transform="matrix(-0.8015145,-1.0182417,1.0182417,-0.8015145,651.31015,973.09699)" />
    <path
       transform="matrix(-0.8015145,-1.0182417,1.0182417,-0.8015145,270.44476,970.00339)"
       d="M 228.75,172.74463 A 3.75,2 0 1 1 221.25,172.74463 A 3.75,2 0 1 1 228.75,172.74463 z"
       sodipodi:ry="2"
       sodipodi:rx="3.75"
       sodipodi:cy="172.74463"
       sodipodi:cx="225"
       id="path2439"
       style="fill:#ffffff;fill-rule:evenodd;stroke:none;stroke-width:1px;stroke-linecap:butt;stroke-linejoin:miter;stroke-opacity:1"
       sodipodi:type="arc" />
    <g
       id="g2457"
       transform="translate(-16.970563,1.2374369)">
      <path
         id="path2449"
         d="M 324.16661,386.88153 C 324.16661,384.90027 321.26085,378.91365 320.2992,378.91365 C 319.40195,378.91365 315.16661,384.93846 315.16661,386.2148 C 315.16661,386.5256 316.52295,386.74132 318.1807,386.69419 C 319.83844,386.64705 321.48844,386.90215 321.84736,387.26107 C 322.84232,388.25603 324.16661,388.03931 324.16661,386.88153 z"
         style="fill:#000000" />
      <path
         id="path2451"
         d="M 325.64891,363.34797 C 327.14473,361.38685 328.10748,359.52118 327.78834,359.20205 C 327.07725,358.49095 319.8,358.25661 319.3244,358.92949 C 318.50969,360.08213 320.50744,366.91365 321.65921,366.91365 C 322.35772,366.91365 324.15309,365.30909 325.64891,363.34797 z"
         style="fill:#000000" />
      <path
         style="fill:#ffffff;fill-rule:evenodd;stroke:#000000;stroke-width:1px;stroke-linecap:butt;stroke-linejoin:miter;stroke-opacity:1"
         d="M 315.62308,356.8355 C 318.80511,352.69301 321.73998,357.25203 324.48562,356.98816 C 327.1707,356.73012 328.21342,355.15054 330.2444,354.61584 C 326.66107,361.44426 324.57773,362.7059 320.9944,368.68722 C 319.40429,363.07483 318.05227,361.9784 315.62308,356.8355 z"
         id="path2453"
         sodipodi:nodetypes="csccc" />
      <path
         sodipodi:nodetypes="cccc"
         id="path2455"
         d="M 312.43374,387.49972 C 316.26707,386.36827 322.78607,385.87127 326.6194,389.99972 C 325.30785,384.45213 323.32588,378.99293 320.42746,373.44534 C 318.39891,378.1596 315.32792,382.78546 312.43374,387.49972 z"
         style="fill:#ffffff;fill-rule:evenodd;stroke:#000000;stroke-width:1px;stroke-linecap:butt;stroke-linejoin:miter;stroke-opacity:1" />
    </g>
  </g>
</svg>
